<mxfile host="Electron" modified="2023-09-16T13:55:39.863Z" agent="Mozilla/5.0 (X11; Linux x86_64) AppleWebKit/537.36 (KHTML, like Gecko) draw.io/21.3.7 Chrome/112.0.5615.204 Electron/24.5.0 Safari/537.36" etag="yIXCiZLraAimVeWc5-Fd" version="21.3.7" type="device">
  <diagram id="i6JOC6UHnEk7Y-BBWTkM" name="Page-1">
    <mxGraphModel dx="880" dy="551" grid="1" gridSize="10" guides="1" tooltips="1" connect="1" arrows="1" fold="1" page="1" pageScale="1" pageWidth="850" pageHeight="1100" math="0" shadow="0">
      <root>
        <mxCell id="0" />
        <mxCell id="1" parent="0" />
        <mxCell id="uk7DaZnTAvA_LM4lqsuJ-4" value="Month" style="shape=table;startSize=30;container=1;collapsible=0;childLayout=tableLayout;fontStyle=1;align=center;pointerEvents=1;fontSize=24;" parent="1" vertex="1">
          <mxGeometry x="250" y="130" width="560" height="320" as="geometry" />
        </mxCell>
        <mxCell id="uk7DaZnTAvA_LM4lqsuJ-5" value="" style="shape=partialRectangle;html=1;whiteSpace=wrap;collapsible=0;dropTarget=0;pointerEvents=0;fillColor=none;top=0;left=0;bottom=0;right=0;points=[[0,0.5],[1,0.5]];portConstraint=eastwest;fontSize=24;" parent="uk7DaZnTAvA_LM4lqsuJ-4" vertex="1">
          <mxGeometry y="30" width="560" height="97" as="geometry" />
        </mxCell>
        <mxCell id="uk7DaZnTAvA_LM4lqsuJ-6" value="" style="shape=partialRectangle;html=1;whiteSpace=wrap;connectable=0;fillColor=none;top=0;left=0;bottom=0;right=0;overflow=hidden;pointerEvents=1;fontSize=24;" parent="uk7DaZnTAvA_LM4lqsuJ-5" vertex="1">
          <mxGeometry width="187" height="97" as="geometry">
            <mxRectangle width="187" height="97" as="alternateBounds" />
          </mxGeometry>
        </mxCell>
        <mxCell id="uk7DaZnTAvA_LM4lqsuJ-7" value="" style="shape=partialRectangle;html=1;whiteSpace=wrap;connectable=0;fillColor=none;top=0;left=0;bottom=0;right=0;overflow=hidden;pointerEvents=1;fontSize=24;" parent="uk7DaZnTAvA_LM4lqsuJ-5" vertex="1">
          <mxGeometry x="187" width="186" height="97" as="geometry">
            <mxRectangle width="186" height="97" as="alternateBounds" />
          </mxGeometry>
        </mxCell>
        <mxCell id="uk7DaZnTAvA_LM4lqsuJ-8" value="" style="shape=partialRectangle;html=1;whiteSpace=wrap;connectable=0;fillColor=none;top=0;left=0;bottom=0;right=0;overflow=hidden;pointerEvents=1;fontSize=24;" parent="uk7DaZnTAvA_LM4lqsuJ-5" vertex="1">
          <mxGeometry x="373" width="187" height="97" as="geometry">
            <mxRectangle width="187" height="97" as="alternateBounds" />
          </mxGeometry>
        </mxCell>
        <mxCell id="uk7DaZnTAvA_LM4lqsuJ-9" value="" style="shape=partialRectangle;html=1;whiteSpace=wrap;collapsible=0;dropTarget=0;pointerEvents=0;fillColor=none;top=0;left=0;bottom=0;right=0;points=[[0,0.5],[1,0.5]];portConstraint=eastwest;fontSize=24;" parent="uk7DaZnTAvA_LM4lqsuJ-4" vertex="1">
          <mxGeometry y="127" width="560" height="96" as="geometry" />
        </mxCell>
        <mxCell id="uk7DaZnTAvA_LM4lqsuJ-10" value="" style="shape=partialRectangle;html=1;whiteSpace=wrap;connectable=0;fillColor=none;top=0;left=0;bottom=0;right=0;overflow=hidden;pointerEvents=1;fontSize=24;" parent="uk7DaZnTAvA_LM4lqsuJ-9" vertex="1">
          <mxGeometry width="187" height="96" as="geometry">
            <mxRectangle width="187" height="96" as="alternateBounds" />
          </mxGeometry>
        </mxCell>
        <mxCell id="uk7DaZnTAvA_LM4lqsuJ-11" value="" style="shape=partialRectangle;html=1;whiteSpace=wrap;connectable=0;fillColor=none;top=0;left=0;bottom=0;right=0;overflow=hidden;pointerEvents=1;fontSize=24;" parent="uk7DaZnTAvA_LM4lqsuJ-9" vertex="1">
          <mxGeometry x="187" width="186" height="96" as="geometry">
            <mxRectangle width="186" height="96" as="alternateBounds" />
          </mxGeometry>
        </mxCell>
        <mxCell id="uk7DaZnTAvA_LM4lqsuJ-12" value="" style="shape=partialRectangle;html=1;whiteSpace=wrap;connectable=0;fillColor=none;top=0;left=0;bottom=0;right=0;overflow=hidden;pointerEvents=1;fontSize=24;" parent="uk7DaZnTAvA_LM4lqsuJ-9" vertex="1">
          <mxGeometry x="373" width="187" height="96" as="geometry">
            <mxRectangle width="187" height="96" as="alternateBounds" />
          </mxGeometry>
        </mxCell>
        <mxCell id="uk7DaZnTAvA_LM4lqsuJ-13" value="" style="shape=partialRectangle;html=1;whiteSpace=wrap;collapsible=0;dropTarget=0;pointerEvents=0;fillColor=none;top=0;left=0;bottom=0;right=0;points=[[0,0.5],[1,0.5]];portConstraint=eastwest;fontSize=24;" parent="uk7DaZnTAvA_LM4lqsuJ-4" vertex="1">
          <mxGeometry y="223" width="560" height="97" as="geometry" />
        </mxCell>
        <mxCell id="uk7DaZnTAvA_LM4lqsuJ-14" value="" style="shape=partialRectangle;html=1;whiteSpace=wrap;connectable=0;fillColor=none;top=0;left=0;bottom=0;right=0;overflow=hidden;pointerEvents=1;fontSize=24;" parent="uk7DaZnTAvA_LM4lqsuJ-13" vertex="1">
          <mxGeometry width="187" height="97" as="geometry">
            <mxRectangle width="187" height="97" as="alternateBounds" />
          </mxGeometry>
        </mxCell>
        <mxCell id="uk7DaZnTAvA_LM4lqsuJ-15" value="" style="shape=partialRectangle;html=1;whiteSpace=wrap;connectable=0;fillColor=none;top=0;left=0;bottom=0;right=0;overflow=hidden;pointerEvents=1;fontSize=24;" parent="uk7DaZnTAvA_LM4lqsuJ-13" vertex="1">
          <mxGeometry x="187" width="186" height="97" as="geometry">
            <mxRectangle width="186" height="97" as="alternateBounds" />
          </mxGeometry>
        </mxCell>
        <mxCell id="uk7DaZnTAvA_LM4lqsuJ-16" value="" style="shape=partialRectangle;html=1;whiteSpace=wrap;connectable=0;fillColor=none;top=0;left=0;bottom=0;right=0;overflow=hidden;pointerEvents=1;fontSize=24;" parent="uk7DaZnTAvA_LM4lqsuJ-13" vertex="1">
          <mxGeometry x="373" width="187" height="97" as="geometry">
            <mxRectangle width="187" height="97" as="alternateBounds" />
          </mxGeometry>
        </mxCell>
        <mxCell id="uk7DaZnTAvA_LM4lqsuJ-18" value="" style="ellipse;whiteSpace=wrap;html=1;aspect=fixed;fontSize=24;fillColor=#d5e8d4;strokeColor=#82b366;" parent="1" vertex="1">
          <mxGeometry x="490" y="170" width="80" height="80" as="geometry" />
        </mxCell>
        <mxCell id="uk7DaZnTAvA_LM4lqsuJ-19" value="" style="ellipse;whiteSpace=wrap;html=1;aspect=fixed;fontSize=24;fillColor=#d5e8d4;strokeColor=#82b366;" parent="1" vertex="1">
          <mxGeometry x="490" y="270" width="80" height="80" as="geometry" />
        </mxCell>
        <mxCell id="uk7DaZnTAvA_LM4lqsuJ-21" value="" style="ellipse;whiteSpace=wrap;html=1;aspect=fixed;fontSize=24;fillColor=#d5e8d4;strokeColor=#82b366;" parent="1" vertex="1">
          <mxGeometry x="300" y="360" width="80" height="80" as="geometry" />
        </mxCell>
        <mxCell id="uk7DaZnTAvA_LM4lqsuJ-22" value="" style="rhombus;whiteSpace=wrap;html=1;fontSize=24;fillColor=#f8cecc;strokeColor=#b85450;" parent="1" vertex="1">
          <mxGeometry x="490" y="362" width="80" height="80" as="geometry" />
        </mxCell>
        <mxCell id="uk7DaZnTAvA_LM4lqsuJ-23" value="" style="shape=flexArrow;endArrow=classic;html=1;rounded=0;fontSize=24;" parent="1" edge="1">
          <mxGeometry width="50" height="50" relative="1" as="geometry">
            <mxPoint x="220" y="80" as="sourcePoint" />
            <mxPoint x="490" y="190" as="targetPoint" />
          </mxGeometry>
        </mxCell>
        <mxCell id="uk7DaZnTAvA_LM4lqsuJ-24" value="" style="shape=flexArrow;endArrow=classic;html=1;rounded=0;fontSize=24;entryX=0;entryY=0.5;entryDx=0;entryDy=0;" parent="1" target="uk7DaZnTAvA_LM4lqsuJ-19" edge="1">
          <mxGeometry width="50" height="50" relative="1" as="geometry">
            <mxPoint x="210" y="90" as="sourcePoint" />
            <mxPoint x="500" y="200" as="targetPoint" />
            <Array as="points">
              <mxPoint x="350" y="200" />
            </Array>
          </mxGeometry>
        </mxCell>
        <mxCell id="uk7DaZnTAvA_LM4lqsuJ-27" value="" style="shape=flexArrow;endArrow=classic;html=1;rounded=0;fontSize=24;entryX=0.152;entryY=0;entryDx=0;entryDy=0;entryPerimeter=0;" parent="1" target="uk7DaZnTAvA_LM4lqsuJ-13" edge="1">
          <mxGeometry width="50" height="50" relative="1" as="geometry">
            <mxPoint x="200" y="100" as="sourcePoint" />
            <mxPoint x="480" y="260" as="targetPoint" />
          </mxGeometry>
        </mxCell>
        <mxCell id="uk7DaZnTAvA_LM4lqsuJ-28" value="Objectives" style="text;html=1;strokeColor=none;fillColor=none;align=center;verticalAlign=middle;whiteSpace=wrap;rounded=0;fontSize=24;" parent="1" vertex="1">
          <mxGeometry x="130" y="60" width="60" height="30" as="geometry" />
        </mxCell>
        <mxCell id="uk7DaZnTAvA_LM4lqsuJ-29" value="" style="shape=flexArrow;endArrow=classic;html=1;rounded=0;fontSize=24;entryX=0.5;entryY=1;entryDx=0;entryDy=0;" parent="1" target="uk7DaZnTAvA_LM4lqsuJ-22" edge="1">
          <mxGeometry width="50" height="50" relative="1" as="geometry">
            <mxPoint x="530" y="500" as="sourcePoint" />
            <mxPoint x="550" y="460" as="targetPoint" />
          </mxGeometry>
        </mxCell>
        <mxCell id="uk7DaZnTAvA_LM4lqsuJ-30" value="Goal" style="text;html=1;strokeColor=none;fillColor=none;align=center;verticalAlign=middle;whiteSpace=wrap;rounded=0;fontSize=24;" parent="1" vertex="1">
          <mxGeometry x="500" y="500" width="60" height="30" as="geometry" />
        </mxCell>
        <mxCell id="uk7DaZnTAvA_LM4lqsuJ-33" value="&lt;font style=&quot;font-size: 10px&quot;&gt;2&lt;/font&gt;" style="text;html=1;strokeColor=none;fillColor=none;align=center;verticalAlign=middle;whiteSpace=wrap;rounded=0;fontSize=24;" parent="1" vertex="1">
          <mxGeometry x="560" y="230" width="60" height="30" as="geometry" />
        </mxCell>
        <mxCell id="uk7DaZnTAvA_LM4lqsuJ-34" value="&lt;font style=&quot;font-size: 10px&quot;&gt;3&lt;/font&gt;" style="text;html=1;strokeColor=none;fillColor=none;align=center;verticalAlign=middle;whiteSpace=wrap;rounded=0;fontSize=24;" parent="1" vertex="1">
          <mxGeometry x="750" y="220" width="60" height="30" as="geometry" />
        </mxCell>
        <mxCell id="uk7DaZnTAvA_LM4lqsuJ-35" value="&lt;font style=&quot;font-size: 10px&quot;&gt;4&lt;/font&gt;" style="text;html=1;strokeColor=none;fillColor=none;align=center;verticalAlign=middle;whiteSpace=wrap;rounded=0;fontSize=24;" parent="1" vertex="1">
          <mxGeometry x="380" y="320" width="60" height="30" as="geometry" />
        </mxCell>
        <mxCell id="uk7DaZnTAvA_LM4lqsuJ-36" value="&lt;font style=&quot;font-size: 10px&quot;&gt;5&lt;/font&gt;" style="text;html=1;strokeColor=none;fillColor=none;align=center;verticalAlign=middle;whiteSpace=wrap;rounded=0;fontSize=24;" parent="1" vertex="1">
          <mxGeometry x="560" y="320" width="60" height="30" as="geometry" />
        </mxCell>
        <mxCell id="uk7DaZnTAvA_LM4lqsuJ-37" value="&lt;font style=&quot;font-size: 10px&quot;&gt;6&lt;/font&gt;" style="text;html=1;strokeColor=none;fillColor=none;align=center;verticalAlign=middle;whiteSpace=wrap;rounded=0;fontSize=24;" parent="1" vertex="1">
          <mxGeometry x="750" y="320" width="60" height="30" as="geometry" />
        </mxCell>
        <mxCell id="uk7DaZnTAvA_LM4lqsuJ-38" value="&lt;font style=&quot;font-size: 10px&quot;&gt;7&lt;/font&gt;&lt;span style=&quot;color: rgba(0 , 0 , 0 , 0) ; font-family: monospace ; font-size: 0px&quot;&gt;%3CmxGraphModel%3E%3Croot%3E%3CmxCell%20id%3D%220%22%2F%3E%3CmxCell%20id%3D%221%22%20parent%3D%220%22%2F%3E%3CmxCell%20id%3D%222%22%20value%3D%22%26lt%3Bfont%20style%3D%26quot%3Bfont-size%3A%2010px%26quot%3B%26gt%3B2%26lt%3B%2Ffont%26gt%3B%22%20style%3D%22text%3Bhtml%3D1%3BstrokeColor%3Dnone%3BfillColor%3Dnone%3Balign%3Dcenter%3BverticalAlign%3Dmiddle%3BwhiteSpace%3Dwrap%3Brounded%3D0%3BfontSize%3D24%3B%22%20vertex%3D%221%22%20parent%3D%221%22%3E%3CmxGeometry%20x%3D%22580%22%20y%3D%22220%22%20width%3D%2260%22%20height%3D%2230%22%20as%3D%22geometry%22%2F%3E%3C%2FmxCell%3E%3C%2Froot%3E%3C%2FmxGraphModel%3E&lt;/span&gt;" style="text;html=1;strokeColor=none;fillColor=none;align=center;verticalAlign=middle;whiteSpace=wrap;rounded=0;fontSize=24;" parent="1" vertex="1">
          <mxGeometry x="370" y="420" width="60" height="30" as="geometry" />
        </mxCell>
        <mxCell id="uk7DaZnTAvA_LM4lqsuJ-39" value="&lt;font style=&quot;font-size: 10px&quot;&gt;8&lt;/font&gt;" style="text;html=1;strokeColor=none;fillColor=none;align=center;verticalAlign=middle;whiteSpace=wrap;rounded=0;fontSize=24;" parent="1" vertex="1">
          <mxGeometry x="560" y="420" width="60" height="30" as="geometry" />
        </mxCell>
        <mxCell id="uk7DaZnTAvA_LM4lqsuJ-42" value="&lt;font style=&quot;font-size: 10px&quot;&gt;9&lt;/font&gt;" style="text;html=1;strokeColor=none;fillColor=none;align=center;verticalAlign=middle;whiteSpace=wrap;rounded=0;fontSize=24;" parent="1" vertex="1">
          <mxGeometry x="750" y="420" width="60" height="30" as="geometry" />
        </mxCell>
      </root>
    </mxGraphModel>
  </diagram>
</mxfile>
